<svg width="65" height="65" viewBox="0 0 65 65" fill="none" xmlns="http://www.w3.org/2000/svg">
<path d="M32.4869 14.8209L33.6777 12.7664C34.4105 11.484 36.0463 11.0521 37.3287 11.785C38.6111 12.5178 39.043 14.1535 38.3102 15.4359L26.86 35.2611H35.1434C37.826 35.2611 39.3309 38.4148 38.1662 40.6002H13.8918C12.4131 40.6002 11.2223 39.4094 11.2223 37.9307C11.2223 36.452 12.4131 35.2611 13.8918 35.2611H20.6965L29.4117 20.16L26.6898 15.4359C25.957 14.1535 26.3889 12.5309 27.6713 11.785C28.9537 11.0521 30.5764 11.484 31.3223 12.7664L32.4869 14.8209ZM22.1883 43.3482L19.6234 47.7975C18.8906 49.0799 17.2549 49.5117 15.9725 48.7789C14.69 48.0461 14.2582 46.4104 14.991 45.1279L16.9016 41.8303C19.0477 41.1629 20.8012 41.6732 22.1883 43.3482ZM44.2904 35.2742H51.2391C52.7178 35.2742 53.9086 36.465 53.9086 37.9438C53.9086 39.4225 52.7178 40.6133 51.2391 40.6133H47.3787L49.9828 45.1279C50.7156 46.4104 50.2838 48.033 49.0014 48.7789C47.7189 49.5117 46.0963 49.0799 45.3504 47.7975C40.9666 40.1945 37.6689 34.5021 35.4836 30.7072C33.2459 26.8469 34.8424 22.9734 36.4258 21.6648C38.1793 24.6746 40.7965 29.2154 44.2904 35.2742ZM32.5 0.046875C14.5723 0.046875 0.046875 14.5723 0.046875 32.5C0.046875 50.4277 14.5723 64.9531 32.5 64.9531C50.4277 64.9531 64.9531 50.4277 64.9531 32.5C64.9531 14.5723 50.4277 0.046875 32.5 0.046875ZM60.7656 32.5C60.7656 48.033 48.19 60.7656 32.5 60.7656C16.967 60.7656 4.23438 48.19 4.23438 32.5C4.23438 16.967 16.81 4.23438 32.5 4.23438C48.033 4.23438 60.7656 16.81 60.7656 32.5Z" fill="#7092BE"/>
</svg>
